<svg width="380" height="380" viewBox="0 0 380 380" fill="none" xmlns="http://www.w3.org/2000/svg">
<circle cx="190.5" cy="190.5" r="189.5" fill="white"/>
<path d="M190 0C85.025 0 0 85.025 0 190C0 294.975 85.025 380 190 380C294.975 380 380 294.975 380 190C380 85.025 294.975 0 190 0ZM187.15 66.5C222.3 66.5 251.275 94.05 251.275 128.25C251.275 162.45 222.775 190 187.15 190C152 190 123.5 162.45 123.5 128.25C123.5 94.05 152 66.5 187.15 66.5ZM299.25 295.45C299.25 313.025 262.2 313.5 216.6 313.5H163.4C117.8 313.5 80.75 313.5 80.75 295.45V290.225C80.75 246.05 117.8 210.425 163.4 210.425H216.6C262.2 210.425 299.25 246.05 299.25 290.225V295.45Z" fill="#E5E5E5"/>
<path d="M214.99 264C214.98 264.112 214.963 264.226 214.963 264.338C214.962 268.285 214.962 272.232 214.962 276.179C214.962 276.291 214.972 276.403 214.982 276.606C215.118 276.488 215.21 276.422 215.285 276.34C216.914 274.568 218.9 273.823 221.233 273.882C225.002 273.979 228.054 276.77 229.15 280.232C229.625 281.729 229.91 283.246 229.833 284.819C229.69 287.749 228.848 290.392 226.799 292.481C225.445 293.861 223.829 294.69 221.94 294.906C220.203 295.105 218.539 294.876 216.963 294.052C216.074 293.586 215.346 292.916 214.765 292.068C214.705 291.981 214.637 291.901 214.499 291.722C214.479 291.952 214.461 292.066 214.46 292.182C214.458 292.829 214.453 293.477 214.462 294.123C214.466 294.35 214.399 294.437 214.174 294.436C212.454 294.429 210.733 294.43 209.011 294.435C208.812 294.436 208.718 294.37 208.736 294.151C208.744 294.05 208.737 293.948 208.737 293.846C208.737 284.074 208.737 274.302 208.736 264.53C208.736 264.354 208.718 264.178 208.709 264.001C210.801 264 212.896 264 214.99 264ZM214.675 284.765C214.679 285.21 214.84 286.02 215.187 286.787C216.533 289.763 220.159 290.584 222.356 288.349C223.767 286.915 224.124 285.078 223.739 283.095C223.164 280.148 220.715 278.624 218.049 279.368C216.083 279.916 214.678 282.041 214.675 284.765Z" fill="#E5E5E5"/>
<path d="M177.44 264C177.435 264.19 177.427 264.381 177.427 264.571C177.426 274.239 177.426 283.908 177.426 293.576C177.426 294.152 177.426 294.152 176.876 294.153C175.324 294.153 173.772 294.144 172.22 294.16C171.884 294.163 171.776 294.044 171.788 293.7C171.808 293.155 171.796 292.609 171.792 292.063C171.791 291.916 171.772 291.768 171.757 291.548C171.65 291.647 171.581 291.689 171.54 291.751C170.444 293.4 168.878 294.245 167.052 294.578C164.154 295.108 161.593 294.33 159.445 292.191C158.153 290.902 157.371 289.279 156.936 287.48C156.128 284.143 156.399 280.927 158.177 277.98C159.945 275.052 162.534 273.711 165.826 273.815C167.906 273.881 169.597 274.782 171.027 276.32C171.06 276.356 171.095 276.392 171.133 276.422C171.151 276.436 171.178 276.435 171.255 276.455C171.272 276.322 171.304 276.196 171.304 276.068C171.305 272.046 171.304 268.024 171.303 264.002C173.348 264 175.394 264 177.44 264ZM171.547 284.165C171.592 283.526 171.433 282.853 171.173 282.206C170.454 280.407 169.229 279.248 167.342 279.077C165.548 278.915 164.124 279.672 163.16 281.287C162.404 282.553 162.328 283.949 162.537 285.392C162.933 288.131 165.474 289.93 168.021 289.26C170.069 288.722 171.544 286.62 171.547 284.165Z" fill="#E5E5E5"/>
<path d="M123.21 264C123.209 270.001 123.208 276.003 123.209 282.004C123.209 282.136 123.241 282.268 123.27 282.502C123.44 282.325 123.557 282.227 123.648 282.107C125.474 279.669 127.301 277.233 129.113 274.784C129.333 274.486 129.557 274.359 129.922 274.362C132.075 274.381 134.229 274.371 136.382 274.371C136.51 274.371 136.637 274.371 136.863 274.371C136.528 274.791 136.255 275.138 135.978 275.479C133.954 277.975 131.933 280.473 129.899 282.96C129.688 283.219 129.678 283.388 129.871 283.664C132.216 287.01 134.548 290.365 136.882 293.718C136.959 293.828 137.032 293.944 137.147 294.119C136.968 294.134 136.844 294.151 136.721 294.151C134.471 294.153 132.22 294.147 129.971 294.159C129.682 294.161 129.515 294.053 129.356 293.808C127.49 290.914 125.616 288.027 123.741 285.138C123.623 284.956 123.496 284.781 123.372 284.603C123.334 284.613 123.296 284.622 123.258 284.632C123.241 284.794 123.209 284.957 123.209 285.12C123.206 287.949 123.207 290.779 123.206 293.608C123.206 294.151 123.205 294.152 122.694 294.152C120.95 294.152 119.205 294.142 117.46 294.16C117.107 294.164 117.02 294.049 117.021 293.687C117.029 283.968 117.029 274.248 117.027 264.529C117.027 264.353 117.009 264.177 117 264C119.07 264 121.14 264 123.21 264Z" fill="#E5E5E5"/>
<path d="M261.998 294.46C261.554 294.45 261.11 294.433 260.666 294.432C259.331 294.428 257.995 294.424 256.659 294.436C256.392 294.439 256.296 294.358 256.309 294.071C256.328 293.615 256.316 293.158 256.311 292.701C256.311 292.571 256.286 292.443 256.266 292.258C256.151 292.338 256.078 292.364 256.042 292.418C255.181 293.734 253.92 294.39 252.498 294.696C250.246 295.182 248.081 294.883 246.144 293.517C244.72 292.514 243.971 291.053 243.887 289.23C243.827 287.94 243.931 286.686 244.661 285.593C245.358 284.548 246.332 283.851 247.423 283.338C248.738 282.719 250.125 282.36 251.555 282.228C252.967 282.096 254.383 282.018 255.797 281.932C256.028 281.918 256.103 281.852 256.109 281.604C256.14 280.2 255.425 279.22 254.049 278.827C252.275 278.319 250.65 278.754 249.122 279.727C248.712 279.988 248.331 280.299 247.888 280.624C246.88 279.488 245.858 278.337 244.775 277.115C245.248 276.72 245.672 276.315 246.145 275.983C247.688 274.901 249.39 274.226 251.224 273.961C253.33 273.657 255.418 273.72 257.443 274.505C259.422 275.271 260.618 276.803 261.255 278.871C261.653 280.167 261.845 281.502 261.911 282.86C261.923 283.124 261.97 283.386 262 283.648C261.998 287.252 261.998 290.857 261.998 294.46ZM255.201 285.677C255.199 285.659 255.197 285.641 255.196 285.622C254.267 285.718 253.333 285.787 252.409 285.921C251.632 286.033 250.912 286.315 250.272 286.84C249.248 287.682 249.191 289.672 250.853 290.318C251.552 290.589 252.267 290.589 252.983 290.519C254.246 290.395 255.247 289.805 255.85 288.585C256.179 287.92 256.302 287.198 256.31 286.458C256.319 285.539 256.391 285.692 255.598 285.677C255.465 285.675 255.333 285.677 255.201 285.677Z" fill="#E5E5E5"/>
<path d="M191.392 290.777C190.902 292.199 190.423 293.585 189.934 295C188.743 294.559 187.58 294.129 186.369 293.681C186.824 292.35 187.271 291.041 187.74 289.668C186.936 289.784 186.201 289.888 185.466 289.997C184.383 290.158 183.302 290.329 182.217 290.48C181.75 290.544 181.362 290.356 181.09 289.95C180.8 289.517 180.782 289.053 181.021 288.587C181.597 287.461 182.177 286.337 182.755 285.212C183.34 284.076 183.932 282.945 184.499 281.8C184.573 281.651 184.582 281.402 184.516 281.252C183.493 278.931 182.453 276.619 181.415 274.306C181.192 273.811 181.23 273.346 181.551 272.916C181.867 272.492 182.299 272.378 182.78 272.474C183.806 272.678 184.831 272.898 185.857 273.11C187.26 273.399 188.662 273.695 190.068 273.965C190.227 273.996 190.451 273.924 190.578 273.815C192.276 272.339 193.968 270.853 195.651 269.357C196.064 268.991 196.502 268.83 197.014 269.042C197.533 269.257 197.738 269.709 197.788 270.266C197.986 272.463 198.191 274.659 198.383 276.856C198.405 277.101 198.497 277.236 198.702 277.348C200.81 278.509 202.912 279.685 205.021 280.845C205.521 281.12 205.849 281.487 205.829 282.116C205.81 282.727 205.476 283.072 204.975 283.313C202.801 284.359 200.634 285.425 198.457 286.464C198.183 286.596 198.138 286.805 198.101 287.055C197.784 289.209 197.464 291.362 197.156 293.517C197.078 294.067 196.844 294.477 196.34 294.668C195.834 294.86 195.409 294.694 195.024 294.313C193.911 293.21 192.787 292.119 191.666 291.025C191.589 290.947 191.505 290.878 191.392 290.777ZM194.576 275.301C194.422 275.431 194.32 275.514 194.222 275.601C193.447 276.283 192.663 276.956 191.898 277.651C191.528 277.986 191.122 278.086 190.659 277.991C190.117 277.882 189.576 277.765 189.033 277.655C188.294 277.504 187.555 277.357 186.77 277.2C186.81 277.32 186.825 277.38 186.849 277.436C187.371 278.604 187.89 279.774 188.421 280.937C188.636 281.41 188.629 281.859 188.391 282.316C187.832 283.394 187.278 284.474 186.723 285.554C186.665 285.667 186.619 285.787 186.547 285.952C186.733 285.932 186.852 285.924 186.97 285.907C188.16 285.733 189.35 285.56 190.54 285.382C190.948 285.32 191.301 285.436 191.601 285.729C192.156 286.272 192.707 286.82 193.262 287.362C193.565 287.659 193.873 287.948 194.22 288.28C194.245 288.144 194.258 288.086 194.267 288.026C194.433 286.912 194.598 285.799 194.765 284.686C194.832 284.241 195.053 283.915 195.444 283.723C195.857 283.521 196.271 283.318 196.685 283.116C197.483 282.727 198.281 282.338 199.12 281.929C198.988 281.847 198.907 281.795 198.824 281.749C197.742 281.145 196.659 280.54 195.575 279.94C195.194 279.729 194.973 279.397 194.923 278.953C194.861 278.412 194.822 277.869 194.771 277.326C194.71 276.673 194.645 276.022 194.576 275.301Z" fill="#E5E5E5"/>
<path d="M148.596 281.743C148.797 280.292 148.123 279.355 147.048 278.89C145.594 278.26 144.142 278.398 142.745 279.049C141.961 279.414 141.246 279.939 140.434 280.431C139.482 279.36 138.467 278.217 137.415 277.031C137.612 276.85 137.786 276.683 137.967 276.524C139.739 274.97 141.806 274.162 144.067 273.843C145.739 273.608 147.401 273.68 149.038 274.103C151.73 274.798 153.28 276.669 153.94 279.451C154.281 280.885 154.435 282.344 154.443 283.814C154.463 287.113 154.444 290.412 154.457 293.711C154.459 294.068 154.356 294.162 154.031 294.159C152.442 294.144 150.854 294.143 149.266 294.16C148.926 294.164 148.824 294.04 148.843 293.699C148.865 293.294 148.852 292.887 148.846 292.481C148.844 292.35 148.818 292.218 148.795 292.021C148.676 292.115 148.595 292.15 148.553 292.213C147.675 293.557 146.372 294.178 144.927 294.481C143.022 294.88 141.161 294.643 139.426 293.707C137.587 292.714 136.604 291.102 136.51 288.904C136.452 287.579 136.607 286.31 137.413 285.235C138.249 284.12 139.366 283.406 140.617 282.922C141.978 282.396 143.387 282.101 144.831 281.996C146.018 281.911 147.206 281.847 148.392 281.772C148.462 281.767 148.531 281.753 148.596 281.743ZM147.563 285.493C147.562 285.481 147.56 285.469 147.557 285.456C146.664 285.556 145.767 285.626 144.879 285.761C144.022 285.891 143.231 286.209 142.618 286.9C141.863 287.75 141.993 289.126 142.886 289.8C143.373 290.167 143.927 290.306 144.51 290.335C145.758 290.397 146.937 290.202 147.848 289.184C148.721 288.208 148.87 286.988 148.83 285.721C148.827 285.641 148.665 285.51 148.57 285.503C148.236 285.477 147.9 285.493 147.563 285.493Z" fill="#E5E5E5"/>
<path d="M244.481 279.579C243.753 279.579 243.097 279.57 242.441 279.581C240.72 279.611 238.971 280.925 238.526 283.057C238.434 283.499 238.375 283.958 238.373 284.409C238.36 287.593 238.359 290.777 238.375 293.961C238.377 294.357 238.266 294.443 237.908 294.44C236.128 294.421 234.347 294.426 232.568 294.437C232.294 294.439 232.192 294.372 232.192 294.059C232.201 287.653 232.2 281.247 232.193 274.839C232.193 274.545 232.265 274.445 232.556 274.447C234.301 274.46 236.045 274.46 237.789 274.447C238.081 274.445 238.159 274.546 238.153 274.84C238.135 275.525 238.146 276.21 238.148 276.896C238.149 277.027 238.163 277.16 238.172 277.291C238.203 277.301 238.234 277.312 238.265 277.322C238.338 277.205 238.415 277.09 238.483 276.97C239.391 275.362 240.668 274.274 242.447 273.978C243.079 273.872 243.738 273.937 244.386 273.946C244.586 273.948 244.736 274.034 244.721 274.32C244.635 276.066 244.565 277.814 244.488 279.56C244.487 279.593 244.459 279.628 244.481 279.579Z" fill="#E5E5E5"/>
<path d="M189.009 271.236C188.012 271.244 187.216 270.422 187.211 269.374C187.205 268.367 188.016 267.51 188.978 267.509C189.952 267.508 190.745 268.338 190.748 269.361C190.752 270.409 189.99 271.228 189.009 271.236Z" fill="#E5E5E5"/>
<path d="M201.243 275.192C201.835 275.192 202.291 275.678 202.289 276.306C202.288 276.932 201.826 277.414 201.234 277.412C200.644 277.409 200.187 276.923 200.187 276.298C200.188 275.677 200.652 275.191 201.243 275.192Z" fill="#E5E5E5"/>
<path d="M193.21 267.431C193.51 267.431 193.757 267.692 193.755 268.006C193.753 268.326 193.508 268.575 193.202 268.569C192.908 268.563 192.686 268.329 192.677 268.017C192.668 267.699 192.912 267.431 193.21 267.431Z" fill="#E5E5E5"/>
</svg>
