<svg width="22" height="20" viewBox="0 0 22 20" fill="none" xmlns="http://www.w3.org/2000/svg">
<path d="M20.3088 0.00201712C20.0379 0.0217235 19.772 0.0852686 19.5215 0.190173H19.5182C19.2777 0.285517 18.1344 0.766454 16.3963 1.49545L10.1677 4.11867C5.69838 6.00024 1.30497 7.85311 1.30497 7.85311L1.35728 7.83286C1.35728 7.83286 1.05438 7.93242 0.737969 8.14927C0.542496 8.27365 0.374291 8.4364 0.243532 8.62767C0.0882819 8.85549 -0.0365931 9.20395 0.00981318 9.56424C0.0857507 10.1734 0.480626 10.5388 0.764126 10.7404C1.051 10.9446 1.32438 11.04 1.32438 11.04H1.33113L5.45116 12.4279C5.63594 13.0211 6.70666 16.5412 6.964 17.352C7.11588 17.8364 7.26353 18.1393 7.44831 18.3705C7.53775 18.4886 7.64237 18.5873 7.76809 18.6666C7.83345 18.7046 7.90314 18.7347 7.97566 18.756L7.93347 18.7459C7.94613 18.7493 7.95625 18.7594 7.96553 18.7628C7.99928 18.7721 8.02206 18.7755 8.06509 18.7822C8.71731 18.9796 9.24128 18.5746 9.24128 18.5746L9.27081 18.551L11.7033 16.3362L15.7803 19.464L15.8732 19.5036C16.7228 19.8765 17.5834 19.669 18.0382 19.3028C18.4964 18.9341 18.6744 18.4624 18.6744 18.4624L18.7039 18.3865L21.8545 2.24639C21.9439 1.84814 21.9667 1.4752 21.868 1.11324C21.7662 0.746901 21.5312 0.431829 21.209 0.229829C20.9385 0.0653953 20.6249 -0.0139732 20.3088 0.00201712ZM20.2235 1.7317C20.2202 1.78486 20.2303 1.77895 20.2067 1.88105V1.89033L17.0856 17.8625C17.0721 17.8853 17.0493 17.9351 16.9869 17.9849C16.9211 18.0372 16.8688 18.0701 16.5946 17.9612L11.608 14.1382L8.59581 16.8838L9.22863 12.8422L17.3759 5.24845C17.7117 4.93627 17.5995 4.87045 17.5995 4.87045C17.6231 4.48739 17.0924 4.75824 17.0924 4.75824L6.81888 11.1226L6.8155 11.1058L1.89138 9.4478V9.44442L1.87872 9.44189C1.88735 9.43902 1.8958 9.43564 1.90403 9.43177L1.93103 9.41827L1.95719 9.40899C1.95719 9.40899 6.35397 7.55611 10.8233 5.67455C13.0609 4.73208 15.3154 3.78286 17.0493 3.05049C18.7833 2.32233 20.0649 1.78824 20.1375 1.75955C20.2067 1.73255 20.1737 1.73255 20.2235 1.73255V1.7317Z" fill="white"/>
</svg>
