<svg width="72" height="76" viewBox="0 0 72 76" fill="none" xmlns="http://www.w3.org/2000/svg">
<path d="M33.4344 37.9167C43.2144 37.9167 51.1427 29.9884 51.1427 20.2083C51.1427 10.4283 43.2144 2.5 33.4344 2.5C23.6544 2.5 15.7261 10.4283 15.7261 20.2083C15.7261 29.9884 23.6544 37.9167 33.4344 37.9167Z" stroke="#241E3C" stroke-width="5"/>
<path d="M51.1428 73.3333H9.58488C8.5804 73.3336 7.58736 73.1201 6.67166 72.7072C5.75597 72.2943 4.93857 71.6914 4.27371 70.9384C3.60884 70.1855 3.11173 69.2997 2.81535 68.34C2.51897 67.3802 2.43011 66.3684 2.55467 65.3717L3.93592 54.3075C4.25713 51.737 5.50635 49.3725 7.44866 47.6584C9.39096 45.9444 11.8925 44.999 14.483 45H15.7261" stroke="#241E3C" stroke-width="5" stroke-linecap="round" stroke-linejoin="round"/>
<path d="M47.6011 52.0833L55.5698 59.1667L68.8511 45" stroke="#241E3C" stroke-width="5" stroke-linecap="round" stroke-linejoin="round"/>
</svg>
