<svg width="29" height="31" viewBox="0 0 29 31" fill="none" xmlns="http://www.w3.org/2000/svg">
<path d="M14.2499 15.25C18.3599 15.25 21.6917 12.116 21.6917 8.25C21.6917 4.38401 18.3599 1.25 14.2499 1.25C10.1399 1.25 6.80811 4.38401 6.80811 8.25C6.80811 12.116 10.1399 15.25 14.2499 15.25Z" stroke="#241E3C" stroke-width="2.5"/>
<path d="M21.6918 18.0498H22.2157C23.3038 18.0501 24.3544 18.4241 25.17 19.1016C25.9856 19.7791 26.5101 20.7134 26.6451 21.729L27.227 26.1026C27.2794 26.4966 27.242 26.8966 27.1175 27.276C26.9929 27.6553 26.784 28.0055 26.5046 28.3031C26.2252 28.6008 25.8817 28.8391 25.4969 29.0023C25.1121 29.1655 24.6948 29.2499 24.2726 29.2498H4.22737C3.80525 29.2499 3.38793 29.1655 3.00311 29.0023C2.6183 28.8391 2.27479 28.6008 1.99539 28.3031C1.71598 28.0055 1.50707 27.6553 1.38252 27.276C1.25797 26.8966 1.22063 26.4966 1.27297 26.1026L1.85344 21.729C1.98842 20.7129 2.5134 19.7782 3.32964 19.1007C4.14588 18.4231 5.19716 18.0494 6.28578 18.0498H6.80819" stroke="#241E3C" stroke-width="2.5" stroke-linecap="round" stroke-linejoin="round"/>
</svg>
